<svg xmlns="http://www.w3.org/2000/svg" version="1.1" xmlns:xlink="http://www.w3.org/1999/xlink" xmlns:svgjs="http://svgjs.dev/svgjs" width="1000" height="921" viewBox="0 0 1000 921"><g transform="matrix(1,0,0,1,-0.6482679421994817,0.3728744939270996)"><svg viewBox="0 0 268 247" data-background-color="#ffffff" preserveAspectRatio="xMidYMid meet" height="921" width="1000" xmlns="http://www.w3.org/2000/svg" xmlns:xlink="http://www.w3.org/1999/xlink"><g id="tight-bounds" transform="matrix(1,0,0,1,0.17373580850946269,-0.09999999999999432)"><svg viewBox="0 0 267.6525283829811 247.2" height="247.2" width="267.6525283829811"><g><svg viewBox="0 0 395.52 365.29654545276077" height="247.2" width="267.6525283829811"><g><svg viewBox="0 0 395.52 365.29654545276077" height="365.29654545276077" width="395.52"><g id="textblocktransform"><svg viewBox="0 0 395.52 365.29654545276077" height="365.29654545276077" width="395.52" id="textblock"><g><rect width="395.52" height="243.80441226993867" fill="none" stroke-width="9.018103199999999" stroke="#acddde" data-fill-palette-color="none" data-stroke-palette-color="tertiary"></rect><rect width="395.52" height="121.49213318282209" y="243.80441226993867" fill="#acddde" data-fill-palette-color="tertiary"></rect></g><g><svg viewBox="0 0 395.52 243.80441226993867" height="243.80441226993867" width="395.52"><g transform="matrix(1,0,0,1,23.607599999999998,23.607599999999998)"><svg width="348.3048" viewBox="2.65 -36.1 65.19999999999999 36.800000000000004" height="196.58921226993866" data-palette-color="#acddde"><path d="M18.55-36.1L18.55-36.1Q21.85-36.1 23.98-35.13 26.1-34.15 27.75-32.85L27.75-32.85Q28.75-32.1 29.28-32.68 29.8-33.25 30-35.4L30-35.4 31.15-35.4Q31.05-33.55 31-30.9 30.95-28.25 30.95-23.9L30.95-23.9 29.8-23.9Q29.45-26.05 29.15-27.33 28.85-28.6 28.43-29.5 28-30.4 27.3-31.3L27.3-31.3Q25.75-33.35 23.4-34.27 21.05-35.2 18.45-35.2L18.45-35.2Q16-35.2 14.03-33.98 12.05-32.75 10.63-30.45 9.2-28.15 8.43-24.9 7.65-21.65 7.65-17.6L7.65-17.6Q7.65-13.4 8.5-10.18 9.35-6.95 10.88-4.75 12.4-2.55 14.48-1.43 16.55-0.3 18.95-0.3L18.95-0.3Q21.2-0.3 23.65-1.2 26.1-2.1 27.5-4.1L27.5-4.1Q28.6-5.55 29.03-7.25 29.45-8.95 29.8-12L29.8-12 30.95-12Q30.95-7.45 31-4.67 31.05-1.9 31.15 0L31.15 0 30 0Q29.8-2.15 29.33-2.7 28.85-3.25 27.75-2.55L27.75-2.55Q25.9-1.25 23.83-0.28 21.75 0.7 18.5 0.7L18.5 0.7Q13.75 0.7 10.18-1.45 6.6-3.6 4.63-7.65 2.65-11.7 2.65-17.4L2.65-17.4Q2.65-23 4.7-27.2 6.75-31.4 10.33-33.75 13.9-36.1 18.55-36.1ZM53.2-36.1L53.2-36.1Q56.45-36.1 58.45-35.13 60.45-34.15 62.2-32.85L62.2-32.85Q62.85-32.35 63.2-32.35L63.2-32.35Q64.15-32.35 64.45-35.4L64.45-35.4 65.6-35.4Q65.5-33.55 65.45-30.9 65.4-28.25 65.4-23.9L65.4-23.9 64.25-23.9Q63.9-26 63.4-27.95 62.9-29.9 61.75-31.3L61.75-31.3Q60.3-33.15 57.95-34.18 55.6-35.2 53.1-35.2L53.1-35.2Q50.6-35.2 48.57-33.98 46.55-32.75 45.1-30.45 43.65-28.15 42.87-24.93 42.1-21.7 42.1-17.65L42.1-17.65Q42.1-8.65 45-4.48 47.9-0.3 54-0.3L54-0.3Q55.8-0.3 57.12-0.83 58.45-1.35 59.2-1.85L59.2-1.85Q60.15-2.5 60.4-3.08 60.65-3.65 60.65-4.6L60.65-4.6 60.65-9.4Q60.65-11.45 60.25-12.45 59.85-13.45 58.77-13.8 57.7-14.15 55.6-14.2L55.6-14.2 55.6-15.2Q56.5-15.15 57.7-15.13 58.9-15.1 60.22-15.08 61.55-15.05 62.65-15.05L62.65-15.05Q64.3-15.05 65.62-15.1 66.95-15.15 67.85-15.2L67.85-15.2 67.85-14.2Q66.2-14.1 65.75-13.4 65.3-12.7 65.3-9.9L65.3-9.9 65.3 0 64.3 0Q64.25-0.85 63.92-1.85 63.6-2.85 62.95-2.85L62.95-2.85Q62.65-2.85 62.35-2.7 62.05-2.55 61.3-2L61.3-2Q59.65-0.75 57.8-0.03 55.95 0.7 53.5 0.7L53.5 0.7Q45.75 0.7 41.42-4.03 37.1-8.75 37.1-17.1L37.1-17.1Q37.1-22.95 39.2-27.2 41.3-31.45 44.92-33.77 48.55-36.1 53.2-36.1Z" opacity="1" transform="matrix(1,0,0,1,0,0)" fill="#acddde" class="wordmark-text-0" data-fill-palette-color="primary" id="text-0"></path></svg></g></svg></g></svg></g></svg></g><g></g></svg></g><defs></defs></svg><rect width="267.6525283829811" height="247.2" fill="none" stroke="none" visibility="hidden"></rect></g></svg></g></svg>